<svg xmlns="http://www.w3.org/2000/svg" viewBox="0 0 960 540" width="960" height="540" role="img" aria-label="DevMode Preview: live viewport switching demo">
  <defs>
    <linearGradient id="bg" x1="0" y1="0" x2="0" y2="1">
      <stop offset="0" stop-color="#0d0f10"/>
      <stop offset="1" stop-color="#15181a"/>
    </linearGradient>
    <radialGradient id="stage" cx="50%" cy="50%" r="60%">
      <stop offset="0" stop-color="#16181a"/>
      <stop offset="1" stop-color="#050607"/>
    </radialGradient>
    <linearGradient id="accent" x1="0" y1="0" x2="1" y2="0">
      <stop offset="0" stop-color="#b6f23d"/>
      <stop offset="1" stop-color="#7fd932"/>
    </linearGradient>
    <filter id="shadow" x="-10%" y="-10%" width="120%" height="120%">
      <feGaussianBlur in="SourceAlpha" stdDeviation="6"/>
      <feOffset dx="0" dy="6" result="o"/>
      <feComponentTransfer><feFuncA type="linear" slope="0.45"/></feComponentTransfer>
      <feMerge><feMergeNode/><feMergeNode in="SourceGraphic"/></feMerge>
    </filter>
    <filter id="deviceShadow" x="-20%" y="-10%" width="140%" height="120%">
      <feGaussianBlur in="SourceAlpha" stdDeviation="14"/>
      <feOffset dx="0" dy="22" result="o"/>
      <feComponentTransfer><feFuncA type="linear" slope="0.55"/></feComponentTransfer>
      <feMerge><feMergeNode/><feMergeNode in="SourceGraphic"/></feMerge>
    </filter>
    <clipPath id="screenMobile"><rect x="0" y="0" width="172" height="332" rx="0"/></clipPath>
    <clipPath id="screenTablet"><rect x="0" y="0" width="290" height="378" rx="0"/></clipPath>
    <clipPath id="screenDesktop"><rect x="0" y="0" width="460" height="278" rx="0"/></clipPath>
    <clipPath id="screenFull"><rect x="0" y="0" width="500" height="376" rx="0"/></clipPath>
    <style>
      .mono { font-family: ui-monospace, SFMono-Regular, "JetBrains Mono", Menlo, Consolas, monospace; }
      .sans { font-family: ui-sans-serif, system-ui, -apple-system, "Segoe UI", Roboto, sans-serif; }

      .pulse { animation: p 2s ease-in-out infinite; transform-origin: center; transform-box: fill-box; }
      @keyframes p { 0%,100% { opacity:1; transform:scale(1); } 50% { opacity:.7; transform:scale(1.15); } }

      /* 10s loop, 4 scenes * 2.5s each, with 0.5s crossfade */
      .scene-mobile  { opacity: 0; animation: scene-mobile  10s ease-in-out infinite; }
      .scene-tablet  { opacity: 0; animation: scene-tablet  10s ease-in-out infinite; }
      .scene-desktop { opacity: 0; animation: scene-desktop 10s ease-in-out infinite; }
      .scene-full    { opacity: 0; animation: scene-full    10s ease-in-out infinite; }

      @keyframes scene-mobile  { 0%, 22% { opacity: 1; } 28%, 95% { opacity: 0; } 100% { opacity: 1; } }
      @keyframes scene-tablet  { 0%, 22% { opacity: 0; } 28%, 47% { opacity: 1; } 53%, 100% { opacity: 0; } }
      @keyframes scene-desktop { 0%, 47% { opacity: 0; } 53%, 72% { opacity: 1; } 78%, 100% { opacity: 0; } }
      @keyframes scene-full    { 0%, 72% { opacity: 0; } 78%, 95% { opacity: 1; } 100% { opacity: 0; } }
    </style>
  </defs>

  <!-- backdrop -->
  <rect width="960" height="540" fill="url(#bg)"/>

  <!-- viewport stage -->
  <rect x="32" y="32" width="540" height="476" rx="16" fill="url(#stage)" stroke="#1f2225"/>

  <!-- ============== STAGE: 4 device scenes overlapping, animated ============== -->
  <g transform="translate(56,52)">

    <!-- ─── SCENE: MOBILE (iPhone, 200x420) ─── -->
    <g class="scene-mobile" filter="url(#deviceShadow)">
      <g transform="translate(154,0)">
        <!-- bezel -->
        <rect x="0" y="0" width="200" height="420" rx="36" fill="#0a0a0a" stroke="rgba(255,255,255,0.06)"/>
        <!-- screen black bg -->
        <rect x="14" y="16" width="172" height="388" rx="26" fill="#000"/>
        <!-- top safe area + dynamic island -->
        <rect x="14" y="16" width="172" height="36" fill="#000"/>
        <rect x="64" y="22" width="72" height="22" rx="11" fill="#0a0a0a" stroke="rgba(255,255,255,0.06)"/>
        <!-- iframe content -->
        <g transform="translate(14,52)" clip-path="url(#screenMobile)">
          <rect width="172" height="332" fill="#0a0a0a"/>
          <g transform="translate(12,12)">
            <circle cx="6" cy="6" r="5" fill="url(#accent)"/>
            <rect x="16" y="2" width="58" height="8" rx="2" fill="#fff"/>
            <rect x="138" y="0" width="22" height="12" rx="6" fill="#1a1d1f"/>
          </g>
          <rect x="30" y="42" width="112" height="16" rx="8" fill="rgba(182,242,61,0.12)" stroke="rgba(182,242,61,0.4)" stroke-width="0.8"/>
          <text x="86" y="53" text-anchor="middle" font-size="7" font-weight="700" fill="#b6f23d" class="sans" letter-spacing="0.4">ACESSO LEGALIZADO</text>
          <text x="14" y="88"  font-size="20" font-weight="800" fill="#fff" class="sans">SEU</text>
          <text x="14" y="110" font-size="20" font-weight="800" fill="#fff" class="sans">CAMINHO</text>
          <text x="14" y="132" font-size="20" font-weight="800" fill="#fff" class="sans">COM <tspan font-style="italic" fill="#b6f23d">canna</tspan></text>
          <text x="14" y="154" font-size="20" font-weight="800" fill="#fff" class="sans">MEDICIN…</text>
          <rect x="14" y="172" width="144" height="4" rx="2" fill="rgba(255,255,255,0.4)"/>
          <rect x="14" y="180" width="136" height="4" rx="2" fill="rgba(255,255,255,0.4)"/>
          <rect x="14" y="188" width="120" height="4" rx="2" fill="rgba(255,255,255,0.4)"/>
          <rect x="26" y="208" width="120" height="24" rx="12" fill="#b6f23d"/>
          <text x="86" y="223" text-anchor="middle" font-size="8" font-weight="700" fill="#0a0a0a" class="sans" letter-spacing="0.3">QUERO SER PACIENTE</text>
        </g>
        <!-- home indicator -->
        <rect x="64" y="394" width="72" height="3" rx="1.5" fill="rgba(255,255,255,0.85)"/>
      </g>
      <text x="254" y="442" text-anchor="middle" fill="#6b7480" font-size="10" class="mono" letter-spacing="0.4">iPhone · 375 × 812 · real iframe</text>
    </g>

    <!-- ─── SCENE: TABLET (iPad, 320x440) ─── -->
    <g class="scene-tablet" filter="url(#deviceShadow)">
      <g transform="translate(94,-8)">
        <rect x="0" y="0" width="320" height="436" rx="22" fill="#0a0a0a" stroke="rgba(255,255,255,0.06)"/>
        <rect x="15" y="20" width="290" height="402" rx="10" fill="#000"/>
        <rect x="15" y="20" width="290" height="14" fill="#000"/>
        <circle cx="160" cy="27" r="2.4" fill="#1a1a1a" stroke="rgba(255,255,255,0.1)"/>
        <g transform="translate(15,34)" clip-path="url(#screenTablet)">
          <rect width="290" height="378" fill="#0a0a0a"/>
          <g transform="translate(20,18)">
            <circle cx="6" cy="6" r="5" fill="url(#accent)"/>
            <rect x="16" y="2" width="68" height="8" rx="2" fill="#fff"/>
            <rect x="100" y="0" width="34" height="12" rx="3" fill="rgba(255,255,255,0.06)"/>
            <rect x="140" y="0" width="34" height="12" rx="3" fill="rgba(255,255,255,0.06)"/>
            <rect x="180" y="0" width="34" height="12" rx="3" fill="rgba(255,255,255,0.06)"/>
            <rect x="240" y="0" width="40" height="12" rx="6" fill="#1a1d1f"/>
          </g>
          <rect x="100" y="58" width="90" height="14" rx="7" fill="rgba(182,242,61,0.12)" stroke="rgba(182,242,61,0.4)" stroke-width="0.8"/>
          <text x="145" y="68" text-anchor="middle" font-size="7" font-weight="700" fill="#b6f23d" class="sans" letter-spacing="0.4">ACESSO LEGALIZADO</text>
          <text x="20"  y="120" font-size="34" font-weight="800" fill="#fff" class="sans">SEU CAMINHO</text>
          <text x="20"  y="156" font-size="34" font-weight="800" fill="#fff" class="sans">COM <tspan font-style="italic" fill="#b6f23d">canna</tspan> MED.</text>
          <rect x="20" y="180" width="240" height="4" rx="2" fill="rgba(255,255,255,0.4)"/>
          <rect x="20" y="190" width="220" height="4" rx="2" fill="rgba(255,255,255,0.4)"/>
          <rect x="20" y="200" width="180" height="4" rx="2" fill="rgba(255,255,255,0.4)"/>
          <rect x="20" y="222" width="160" height="28" rx="14" fill="#b6f23d"/>
          <text x="100" y="240" text-anchor="middle" font-size="10" font-weight="700" fill="#0a0a0a" class="sans" letter-spacing="0.3">QUERO SER PACIENTE</text>
        </g>
      </g>
      <text x="254" y="442" text-anchor="middle" fill="#6b7480" font-size="10" class="mono" letter-spacing="0.4">iPad · 768 × 1024 · real iframe</text>
    </g>

    <!-- ─── SCENE: DESKTOP (1280x800 → 460x310) ─── -->
    <g class="scene-desktop" filter="url(#deviceShadow)">
      <g transform="translate(24,52)">
        <rect x="0" y="0" width="460" height="310" rx="12" fill="#0a0a0a" stroke="rgba(255,255,255,0.06)"/>
        <!-- title bar -->
        <rect x="0" y="0" width="460" height="22" rx="12" fill="#0a0a0a"/>
        <circle cx="14" cy="11" r="4" fill="#ff5f57"/>
        <circle cx="28" cy="11" r="4" fill="#febc2e"/>
        <circle cx="42" cy="11" r="4" fill="#28c840"/>
        <rect x="160" y="6" width="140" height="11" rx="3" fill="rgba(255,255,255,0.04)"/>
        <!-- content -->
        <g transform="translate(10,30)" clip-path="url(#screenDesktop)">
          <rect width="440" height="270" fill="#0a0a0a"/>
          <g transform="translate(20,20)">
            <circle cx="6" cy="6" r="5" fill="url(#accent)"/>
            <rect x="16" y="2" width="78" height="8" rx="2" fill="#fff"/>
            <rect x="140" y="0" width="36" height="12" rx="3" fill="rgba(255,255,255,0.06)"/>
            <rect x="184" y="0" width="36" height="12" rx="3" fill="rgba(255,255,255,0.06)"/>
            <rect x="228" y="0" width="36" height="12" rx="3" fill="rgba(255,255,255,0.06)"/>
            <rect x="272" y="0" width="36" height="12" rx="3" fill="rgba(255,255,255,0.06)"/>
            <rect x="316" y="0" width="36" height="12" rx="3" fill="rgba(255,255,255,0.06)"/>
            <rect x="370" y="-2" width="50" height="16" rx="8" fill="#1a1d1f"/>
          </g>
          <rect x="170" y="50" width="100" height="16" rx="8" fill="rgba(182,242,61,0.12)" stroke="rgba(182,242,61,0.4)" stroke-width="0.8"/>
          <text x="220" y="61" text-anchor="middle" font-size="7" font-weight="700" fill="#b6f23d" class="sans" letter-spacing="0.4">ACESSO LEGALIZADO</text>
          <text x="20"  y="120" font-size="44" font-weight="800" fill="#fff" class="sans">SEU CAMINHO COM</text>
          <text x="20"  y="160" font-size="44" font-weight="800" fill="#fff" class="sans"><tspan font-style="italic" fill="#b6f23d">canna</tspan> MEDICINA</text>
          <rect x="20" y="184" width="280" height="4" rx="2" fill="rgba(255,255,255,0.4)"/>
          <rect x="20" y="194" width="240" height="4" rx="2" fill="rgba(255,255,255,0.4)"/>
          <rect x="20" y="216" width="180" height="28" rx="14" fill="#b6f23d"/>
          <text x="110" y="234" text-anchor="middle" font-size="11" font-weight="700" fill="#0a0a0a" class="sans" letter-spacing="0.3">QUERO SER PACIENTE</text>
        </g>
      </g>
      <text x="254" y="442" text-anchor="middle" fill="#6b7480" font-size="10" class="mono" letter-spacing="0.4">Desktop · 1280 × 800 · real iframe</text>
    </g>

    <!-- ─── SCENE: FULL (no chrome) ─── -->
    <g class="scene-full">
      <g transform="translate(4,32)">
        <rect x="0" y="0" width="500" height="376" rx="10" fill="#0a0a0a" stroke="rgba(255,255,255,0.06)"/>
        <g transform="translate(0,0)" clip-path="url(#screenFull)">
          <rect width="500" height="376" fill="#0a0a0a"/>
          <g transform="translate(28,28)">
            <circle cx="6" cy="6" r="5" fill="url(#accent)"/>
            <rect x="16" y="2" width="88" height="8" rx="2" fill="#fff"/>
            <rect x="170" y="0" width="36" height="12" rx="3" fill="rgba(255,255,255,0.06)"/>
            <rect x="214" y="0" width="36" height="12" rx="3" fill="rgba(255,255,255,0.06)"/>
            <rect x="258" y="0" width="36" height="12" rx="3" fill="rgba(255,255,255,0.06)"/>
            <rect x="302" y="0" width="36" height="12" rx="3" fill="rgba(255,255,255,0.06)"/>
            <rect x="346" y="0" width="36" height="12" rx="3" fill="rgba(255,255,255,0.06)"/>
            <rect x="420" y="-2" width="52" height="16" rx="8" fill="#1a1d1f"/>
          </g>
          <rect x="186" y="62" width="100" height="16" rx="8" fill="rgba(182,242,61,0.12)" stroke="rgba(182,242,61,0.4)" stroke-width="0.8"/>
          <text x="236" y="73" text-anchor="middle" font-size="7" font-weight="700" fill="#b6f23d" class="sans" letter-spacing="0.4">ACESSO LEGALIZADO</text>
          <text x="28"  y="148" font-size="50" font-weight="800" fill="#fff" class="sans">SEU CAMINHO COM</text>
          <text x="28"  y="192" font-size="50" font-weight="800" fill="#fff" class="sans"><tspan font-style="italic" fill="#b6f23d">canna</tspan> MEDICINA</text>
          <rect x="28" y="216" width="320" height="4" rx="2" fill="rgba(255,255,255,0.4)"/>
          <rect x="28" y="226" width="280" height="4" rx="2" fill="rgba(255,255,255,0.4)"/>
          <rect x="28" y="248" width="200" height="32" rx="16" fill="#b6f23d"/>
          <text x="128" y="268" text-anchor="middle" font-size="12" font-weight="700" fill="#0a0a0a" class="sans" letter-spacing="0.3">QUERO SER PACIENTE</text>
        </g>
      </g>
      <text x="254" y="442" text-anchor="middle" fill="#6b7480" font-size="10" class="mono" letter-spacing="0.4">Full · 100% · real iframe</text>
    </g>
  </g>

  <!-- ============== DRAWER ============== -->
  <g filter="url(#shadow)" transform="translate(600,32)">
    <rect width="328" height="476" rx="14" fill="#0d0f10" stroke="#25292d"/>

    <g>
      <circle cx="22" cy="26" r="4" fill="url(#accent)" class="pulse"/>
      <text x="34" y="30" fill="#e7ecef" font-size="13" font-weight="600" class="sans">DevMode · Preview</text>
      <g transform="translate(266,16)">
        <rect width="22" height="22" rx="6" fill="transparent" stroke="#25292d"/>
        <circle cx="11" cy="11" r="4" fill="none" stroke="#9aa3aa" stroke-width="1.4"/>
        <path d="M11 4v2M11 16v2M4 11h2M16 11h2M6 6l1.4 1.4M14.6 14.6l1.4 1.4M6 16l1.4-1.4M14.6 7.4l1.4-1.4" stroke="#9aa3aa" stroke-width="1.2" stroke-linecap="round"/>
      </g>
      <g transform="translate(294,16)">
        <rect width="22" height="22" rx="6" fill="transparent" stroke="#25292d"/>
        <path d="M7 7l8 8M15 7l-8 8" stroke="#9aa3aa" stroke-width="1.6" stroke-linecap="round"/>
      </g>
    </g>
    <line x1="0" y1="48" x2="328" y2="48" stroke="#1d2124"/>

    <!-- tabs -->
    <g transform="translate(10,58)">
      <rect width="58" height="28" rx="6" fill="#15181a" stroke="#25292d"/>
      <text x="29" y="18" text-anchor="middle" fill="#e7ecef" font-size="11" font-weight="500" class="sans">Viewport</text>
      <text x="80"  y="18" fill="#9aa3aa" font-size="11" class="sans">Routes</text>
      <text x="128" y="18" fill="#9aa3aa" font-size="11" class="sans">SEO</text>
      <text x="162" y="18" fill="#9aa3aa" font-size="11" class="sans">Perf</text>
      <text x="196" y="18" fill="#9aa3aa" font-size="11" class="sans">Tags</text>
      <text x="232" y="18" fill="#9aa3aa" font-size="11" class="sans">Deps</text>
    </g>
    <line x1="0" y1="100" x2="328" y2="100" stroke="#1d2124"/>

    <!-- intro -->
    <text x="16" y="124" fill="#9aa3aa" font-size="11" class="sans">Real iframe — media queries respond as on</text>
    <text x="16" y="140" fill="#9aa3aa" font-size="11" class="sans">actual devices.</text>

    <!-- viewport grid (4 cards, each with base + animated highlight overlay) -->
    <g transform="translate(16,160)">
      <!-- card MOBILE -->
      <g>
        <rect width="144" height="62" rx="8" fill="#15181a" stroke="#25292d"/>
        <text x="14" y="26" fill="#e7ecef" font-size="14" font-weight="700" class="sans">Mobile</text>
        <text x="14" y="46" fill="#9aa3aa" font-size="11" class="mono">375px</text>
        <g class="scene-mobile">
          <rect width="144" height="62" rx="8" fill="rgba(182,242,61,0.08)" stroke="#b6f23d"/>
          <text x="14" y="26" fill="#b6f23d" font-size="14" font-weight="700" class="sans">Mobile</text>
          <text x="14" y="46" fill="#9aa3aa" font-size="11" class="mono">375px</text>
        </g>
      </g>
      <!-- card TABLET -->
      <g transform="translate(152,0)">
        <rect width="144" height="62" rx="8" fill="#15181a" stroke="#25292d"/>
        <text x="14" y="26" fill="#e7ecef" font-size="14" font-weight="700" class="sans">Tablet</text>
        <text x="14" y="46" fill="#9aa3aa" font-size="11" class="mono">768px</text>
        <g class="scene-tablet">
          <rect width="144" height="62" rx="8" fill="rgba(182,242,61,0.08)" stroke="#b6f23d"/>
          <text x="14" y="26" fill="#b6f23d" font-size="14" font-weight="700" class="sans">Tablet</text>
          <text x="14" y="46" fill="#9aa3aa" font-size="11" class="mono">768px</text>
        </g>
      </g>
      <!-- card DESKTOP -->
      <g transform="translate(0,76)">
        <rect width="144" height="62" rx="8" fill="#15181a" stroke="#25292d"/>
        <text x="14" y="26" fill="#e7ecef" font-size="14" font-weight="700" class="sans">Desktop</text>
        <text x="14" y="46" fill="#9aa3aa" font-size="11" class="mono">1280px</text>
        <g class="scene-desktop">
          <rect width="144" height="62" rx="8" fill="rgba(182,242,61,0.08)" stroke="#b6f23d"/>
          <text x="14" y="26" fill="#b6f23d" font-size="14" font-weight="700" class="sans">Desktop</text>
          <text x="14" y="46" fill="#9aa3aa" font-size="11" class="mono">1280px</text>
        </g>
      </g>
      <!-- card FULL -->
      <g transform="translate(152,76)">
        <rect width="144" height="62" rx="8" fill="#15181a" stroke="#25292d"/>
        <text x="14" y="26" fill="#e7ecef" font-size="14" font-weight="700" class="sans">Full</text>
        <text x="14" y="46" fill="#9aa3aa" font-size="11" class="mono">100%</text>
        <g class="scene-full">
          <rect width="144" height="62" rx="8" fill="rgba(182,242,61,0.08)" stroke="#b6f23d"/>
          <text x="14" y="26" fill="#b6f23d" font-size="14" font-weight="700" class="sans">Full</text>
          <text x="14" y="46" fill="#9aa3aa" font-size="11" class="mono">100%</text>
        </g>
      </g>
    </g>

    <!-- live audits preview -->
    <g transform="translate(16,330)">
      <text x="0" y="0" font-size="9" fill="#6b7480" font-weight="700" letter-spacing="1" class="sans">LIVE AUDITS</text>
      <g transform="translate(0,12)"><circle cx="4" cy="6" r="3" fill="#b6f23d"/><text x="14" y="9" font-size="11" fill="#e7ecef" class="sans">SEO · 9/10 checks passing</text></g>
      <g transform="translate(0,30)"><circle cx="4" cy="6" r="3" fill="#ffb547"/><text x="14" y="9" font-size="11" fill="#e7ecef" class="sans">LCP · 2.8s · slightly slow</text></g>
      <g transform="translate(0,48)"><circle cx="4" cy="6" r="3" fill="#b6f23d"/><text x="14" y="9" font-size="11" fill="#e7ecef" class="sans">GA4, Meta Pixel, Hotjar detected</text></g>
      <g transform="translate(0,66)"><circle cx="4" cy="6" r="3" fill="#ff6b6b"/><text x="14" y="9" font-size="11" fill="#e7ecef" class="sans">next 14.0.3 → 14.2.18 · 3 CVEs</text></g>
    </g>

    <line x1="0" y1="442" x2="328" y2="442" stroke="#1d2124"/>
    <text x="16" y="460" fill="#6b7480" font-size="10" class="mono">Persisted in localStorage · dev only</text>
  </g>

  <!-- ============== Segmented FAB ============== -->
  <g transform="translate(560,490)">
    <rect width="380" height="36" rx="18" fill="#15181a" stroke="#25292d" filter="url(#shadow)"/>
    <circle cx="20" cy="18" r="4" fill="url(#accent)" class="pulse"/>
    <text x="32" y="22" fill="#e7ecef" font-size="12" font-weight="600" class="sans">DevMode</text>
    <line x1="116" y1="6" x2="116" y2="30" stroke="#25292d"/>

    <!-- MOBILE shortcut: base icon + highlighted overlay -->
    <g transform="translate(116,0)">
      <g transform="translate(16,9)" fill="none" stroke="#9aa3aa" stroke-width="1.6" stroke-linecap="round" stroke-linejoin="round">
        <rect x="3" y="0" width="10" height="18" rx="2"/>
        <line x1="7" y1="15" x2="9" y2="15"/>
      </g>
      <g class="scene-mobile">
        <rect width="44" height="36" fill="rgba(182,242,61,0.12)"/>
        <g transform="translate(16,9)" fill="none" stroke="#b6f23d" stroke-width="1.6" stroke-linecap="round" stroke-linejoin="round">
          <rect x="3" y="0" width="10" height="18" rx="2"/>
          <line x1="7" y1="15" x2="9" y2="15"/>
        </g>
      </g>
    </g>

    <line x1="160" y1="6" x2="160" y2="30" stroke="#25292d"/>
    <!-- TABLET shortcut -->
    <g transform="translate(160,0)">
      <g transform="translate(16,9)" fill="none" stroke="#9aa3aa" stroke-width="1.6" stroke-linecap="round" stroke-linejoin="round">
        <rect x="0" y="0" width="16" height="18" rx="2"/>
        <line x1="7" y1="15" x2="9" y2="15"/>
      </g>
      <g class="scene-tablet">
        <rect width="48" height="36" fill="rgba(182,242,61,0.12)"/>
        <g transform="translate(16,9)" fill="none" stroke="#b6f23d" stroke-width="1.6" stroke-linecap="round" stroke-linejoin="round">
          <rect x="0" y="0" width="16" height="18" rx="2"/>
          <line x1="7" y1="15" x2="9" y2="15"/>
        </g>
      </g>
    </g>

    <line x1="208" y1="6" x2="208" y2="30" stroke="#25292d"/>
    <!-- DESKTOP shortcut -->
    <g transform="translate(208,0)">
      <g transform="translate(14,11)" fill="none" stroke="#9aa3aa" stroke-width="1.6" stroke-linecap="round" stroke-linejoin="round">
        <rect x="0" y="0" width="20" height="13" rx="2"/>
        <line x1="6" y1="18" x2="14" y2="18"/>
        <line x1="10" y1="14" x2="10" y2="18"/>
      </g>
      <g class="scene-desktop">
        <rect width="48" height="36" fill="rgba(182,242,61,0.12)"/>
        <g transform="translate(14,11)" fill="none" stroke="#b6f23d" stroke-width="1.6" stroke-linecap="round" stroke-linejoin="round">
          <rect x="0" y="0" width="20" height="13" rx="2"/>
          <line x1="6" y1="18" x2="14" y2="18"/>
          <line x1="10" y1="14" x2="10" y2="18"/>
        </g>
      </g>
    </g>

    <line x1="256" y1="6" x2="256" y2="30" stroke="#25292d"/>
    <!-- FULL shortcut -->
    <g transform="translate(256,0)">
      <g transform="translate(16,10)" fill="none" stroke="#9aa3aa" stroke-width="1.6" stroke-linecap="round" stroke-linejoin="round">
        <path d="M0 6V1h5M16 6V1h-5M0 10v5h5M16 10v5h-5"/>
      </g>
      <g class="scene-full">
        <rect width="48" height="36" fill="rgba(182,242,61,0.12)"/>
        <g transform="translate(16,10)" fill="none" stroke="#b6f23d" stroke-width="1.6" stroke-linecap="round" stroke-linejoin="round">
          <path d="M0 6V1h5M16 6V1h-5M0 10v5h5M16 10v5h-5"/>
        </g>
      </g>
    </g>
  </g>
</svg>
